# Blender 3.1.0
# www.blender.org
mtllib prism idk.mtl
o nc_optics_prism
v 0.312500 -0.375000 -0.437500
v 0.312500 -0.375000 0.312500
v -0.437500 -0.375000 0.312500
v -0.437500 -0.375000 -0.437500
v 0.312500 0.375000 -0.437500
v -0.437500 0.375000 -0.437500
v -0.437500 0.375000 0.312500
v 0.312500 0.375000 0.312500
v 0.098788 0.000000 -0.062500
v -0.062500 -0.000000 0.437500
v -0.312500 0.000000 -0.312500
vn -0.0000 -1.0000 -0.0000
vn -0.0000 1.0000 -0.0000
vn 0.8688 -0.0000 0.4951
vn 0.3162 -0.0000 0.9487
vn 0.8688 -0.4951 -0.0000
vn -0.0000 0.3162 0.9487
vn 0.8688 0.4951 -0.0000
vn -0.0000 -0.3162 0.9487
vn 0.8688 -0.0000 -0.4951
vn -0.3162 -0.0000 0.9487
vn -0.9487 -0.3162 -0.0000
vn -0.0000 0.3162 -0.9487
vn -0.9487 0.3162 -0.0000
vn -0.9806 -0.0000 -0.1961
vn -0.0000 -0.3162 -0.9487
vn -0.1961 -0.0000 -0.9806
vt 1.000000 0.000000
vt 1.000000 1.000000
vt 0.000000 1.000000
vt 1.000000 0.000000
vt 0.000000 0.000000
vt 0.000000 0.000000
vt 1.000000 0.000000
vt 1.000000 0.000000
vt 0.000000 1.000000
vt 0.000000 0.000000
vt 1.000000 1.000000
vt 1.000000 0.000000
vt 0.000000 1.000000
vt 0.000000 0.000000
vt 0.000000 0.000000
vt 0.000000 1.000000
vt 1.000000 1.000000
vt 1.000000 0.000000
vt 1.000000 1.000000
vt 0.000000 1.000000
vt 0.500000 0.500000
vt 0.500000 0.500000
vt 0.250000 0.500000
s 1
usemtl Default_OBJ
f 1/2/1 2/3/1 3/6/1 4/8/1
f 5/11/2 6/13/2 7/15/2 8/18/2
f 9/21/3 1/1/3 5/11/3
f 10/22/4 2/4/4 8/19/4
f 8/20/5 9/21/5 5/11/5
f 7/16/6 10/22/6 8/19/6
f 9/21/7 2/5/7 1/1/7
f 10/22/8 3/6/8 2/4/8
f 8/20/9 2/5/9 9/21/9
f 7/16/10 3/6/10 10/22/10
f 7/17/11 6/13/11 11/23/11
f 1/2/12 4/9/12 11/23/12
f 4/10/13 3/7/13 11/23/13
f 3/7/14 7/17/14 11/23/14
f 6/14/15 5/12/15 11/23/15
f 5/12/16 1/2/16 11/23/16
